<?xml version="1.0" encoding="UTF-8"?>
<svg xmlns="http://www.w3.org/2000/svg" xmlns:xlink="http://www.w3.org/1999/xlink" viewBox="0 0 512 512" width="512px" height="512px">
<g id="surface101366405">
<path style=" stroke:none;fill-rule:nonzero;fill:rgb(92.941177%,92.941177%,92.941177%);fill-opacity:1;" d="M 248 16 C 120.09375 16 16 120.09375 16 248 C 16 349.1875 81.15625 435.40625 171.65625 467.03125 C 172.9375 467.9375 174.46875 468.5 176.09375 468.53125 C 198.71875 475.9375 222.90625 480 248 480 C 375.90625 480 480 375.90625 480 248 C 480 120.09375 375.90625 16 248 16 Z M 248 32 C 367.09375 32 464 128.90625 464 248 C 464 341.28125 404.5625 420.90625 321.59375 451.09375 C 320.71875 448.5 320 444.65625 320 442.03125 L 320 400 C 320 383.25 311.8125 365 303.75 352.75 C 348.15625 345.25 398.90625 322.21875 398.90625 236.25 C 398.90625 212.6875 391.53125 191.90625 377 174.40625 C 380.1875 163.90625 384.125 141.75 373.125 113.9375 C 372.25 111.71875 370.40625 110 368.125 109.25 C 365.875 108.5625 345.34375 103.21875 302.71875 131.1875 C 285.375 126.71875 267.03125 124.40625 248 124.34375 C 229.0625 124.40625 210.6875 126.71875 193.40625 131.1875 C 150.78125 103.1875 130.1875 108.53125 127.96875 109.25 C 125.6875 110 123.84375 111.71875 122.96875 113.9375 C 111.9375 141.78125 115.875 163.90625 119.125 174.40625 C 104.53125 191.90625 97.15625 212.6875 97.15625 236.25 C 97.15625 321.4375 147 344.90625 191.03125 352.71875 C 185.5 359.71875 179.6875 368.78125 177.125 378 C 165.75 381.15625 142.4375 381.25 126.78125 354.4375 C 126.21875 353.40625 112.53125 329.09375 85.53125 327.21875 C 81.25 327.25 70.375 327.9375 67.75 336.25 C 64.84375 345.46875 75.03125 352.46875 79.40625 355.4375 C 79.6875 355.625 80.125 355.875 80.40625 356.03125 C 80.90625 356.28125 92.5625 362.40625 101.25 384.28125 C 103.0625 390 118.96875 433.09375 176.0625 425.5 C 176.09375 431.8125 176.0625 435 176 437.53125 L 176 442 C 176 444.59375 175.21875 448.5 174.34375 451.03125 C 91.375 420.84375 32 341.21875 32 248 C 32 128.90625 128.90625 32 248 32 Z M 246.0625 56.03125 C 214.875 56.375 184.03125 64.59375 156.875 80.125 C 153.03125 82.28125 151.6875 87.1875 153.875 91 C 155.34375 93.59375 158.03125 95.0625 160.84375 95.0625 C 162.1875 95.0625 163.53125 94.71875 164.78125 94 C 197.875 75.125 236.9375 68.0625 274.71875 74.125 C 279.0625 74.84375 283.15625 71.875 283.875 67.5 C 284.5625 63.125 281.59375 59.03125 277.25 58.3125 C 266.90625 56.65625 256.46875 55.90625 246.0625 56.03125 Z M 309.25 67.09375 C 306.15625 67.21875 303.25 69.1875 302.125 72.28125 C 300.5625 76.4375 302.65625 81.03125 306.8125 82.59375 C 312.5 84.71875 318.125 87.15625 323.625 89.90625 C 324.78125 90.5 326 90.78125 327.21875 90.78125 C 330.125 90.78125 332.9375 89.1875 334.375 86.375 C 336.34375 82.46875 334.75 77.625 330.8125 75.625 C 324.84375 72.625 318.625 69.90625 312.40625 67.59375 C 311.375 67.21875 310.3125 67.0625 309.25 67.09375 Z M 359.875 124.375 C 368.46875 149.65625 362.59375 167.96875 360.46875 173.15625 C 359.3125 176.03125 359.90625 179.3125 362 181.59375 C 375.84375 196.75 382.875 215.125 382.875 236.25 C 382.875 317.34375 334.8125 333.625 287.75 338.84375 C 284.59375 339.1875 281.9375 341.375 281 344.40625 C 280.03125 347.4375 281 350.75 283.40625 352.84375 C 289.71875 358.25 304 381.71875 304 400 L 304 442.03125 C 304 442.1875 304.03125 449.15625 306.3125 455.9375 C 287.75 461.15625 268.21875 464 248 464 C 227.75 464 208.1875 461.125 189.59375 455.90625 C 191.90625 449.09375 191.96875 442.125 191.96875 442 L 192 437.71875 C 192.03125 434.09375 192.09375 429.1875 192 415.96875 C 191.96875 413.53125 190.875 411.28125 189 409.75 C 187.125 408.25 184.65625 407.6875 182.28125 408.1875 C 128.5625 419.90625 116.9375 381.125 116.5 379.5 C 116.40625 379.21875 116.3125 378.96875 116.21875 378.6875 C 108.53125 359.1875 98.40625 349.25 92.375 344.75 C 105.40625 349.34375 112.6875 362.0625 112.875 362.34375 C 134.03125 398.5625 168.96875 399.5 187.25 391.3125 C 189.78125 390.1875 191.53125 387.84375 191.90625 385.125 C 193.53125 373.6875 206.09375 358.5625 212.4375 353 C 214.8125 350.90625 215.75 347.59375 214.78125 344.59375 C 213.84375 341.5625 211.21875 339.375 208.09375 339.03125 C 161.15625 333.6875 113.15625 317.28125 113.15625 236.25 C 113.15625 215.15625 120.1875 196.75 134.09375 181.59375 C 136.1875 179.3125 136.78125 176.03125 135.59375 173.15625 C 133.46875 167.96875 127.5625 149.71875 136.125 124.40625 C 142.9375 124.625 159.53125 127.53125 187.46875 146.5 C 189.40625 147.8125 191.875 148.21875 194.125 147.59375 C 210.84375 142.9375 229.5 140.4375 248 140.34375 C 266.5625 140.4375 285.21875 142.9375 301.96875 147.59375 C 304.21875 148.21875 306.65625 147.8125 308.59375 146.5 C 336.6875 127.4375 353.28125 124.59375 359.875 124.375 Z M 171 275.15625 C 167.875 274.78125 164.71875 276.21875 163.09375 279.09375 L 155.09375 292.9375 C 152.875 296.78125 154.1875 301.65625 158 303.875 C 159.25 304.59375 160.625 304.9375 162 304.9375 C 164.75 304.9375 167.4375 303.5 168.90625 300.9375 L 176.90625 287.09375 C 179.125 283.28125 177.84375 278.375 174 276.15625 C 173.03125 275.625 172.03125 275.28125 171 275.15625 Z M 325 275.15625 C 323.96875 275.28125 322.9375 275.625 322 276.15625 C 318.15625 278.375 316.875 283.28125 319.09375 287.125 L 327.09375 300.96875 C 328.5625 303.53125 331.25 304.96875 334 304.96875 C 335.375 304.96875 336.75 304.59375 338 303.875 C 341.84375 301.65625 343.125 296.78125 340.90625 292.96875 L 332.90625 279.125 C 331.25 276.25 328.09375 274.78125 325 275.15625 Z M 289.5 290.75 C 288.46875 290.59375 287.375 290.65625 286.28125 290.96875 C 282.03125 292.09375 279.5 296.46875 280.625 300.75 L 284.78125 316.21875 C 285.75 319.78125 288.96875 322.125 292.5 322.125 C 293.21875 322.125 293.90625 322.03125 294.59375 321.875 C 298.84375 320.71875 301.40625 316.34375 300.25 312.0625 L 296.125 296.625 C 295.25 293.40625 292.5625 291.1875 289.5 290.75 Z M 206.53125 290.75 C 203.4375 291.1875 200.75 293.40625 199.875 296.625 L 195.75 312.09375 C 194.59375 316.34375 197.15625 320.71875 201.40625 321.875 C 202.09375 322.0625 202.78125 322.125 203.5 322.125 C 207 322.125 210.25 319.78125 211.21875 316.21875 L 215.375 300.75 C 216.5 296.5 213.96875 292.09375 209.71875 290.96875 C 208.625 290.65625 207.5625 290.625 206.53125 290.75 Z M 248 296 C 243.5625 296 240 299.5625 240 304 L 240 320 C 240 324.4375 243.5625 328 248 328 C 252.4375 328 256 324.4375 256 320 L 256 304 C 256 299.5625 252.4375 296 248 296 Z M 248 296 "/>
</g>
</svg>
