<?xml version="1.0" encoding="UTF-8"?>
<svg xmlns="http://www.w3.org/2000/svg" xmlns:xlink="http://www.w3.org/1999/xlink" viewBox="0 0 512 512" width="512px" height="512px">
<g id="surface101373336">
<path style=" stroke:none;fill-rule:nonzero;fill:rgb(92.941177%,92.941177%,92.941177%);fill-opacity:1;" d="M 336 44 C 329.199219 44 324 49.199219 324 56 C 324 62.800781 329.199219 68 336 68 L 427.203125 68 L 241.601562 253.601562 C 236.800781 258.402344 236.800781 266 241.601562 270.398438 C 244 272.796875 247.199219 274 250 274 C 252.800781 274 256 272.796875 258.398438 270.398438 L 444 84.796875 L 444 176 C 444 182.800781 449.199219 188 456 188 C 462.800781 188 468 182.800781 468 176 L 468 56 C 468 49.199219 462.800781 44 456 44 Z M 96 124 C 67.199219 124 44 147.199219 44 176 L 44 416 C 44 444.800781 67.199219 468 96 468 L 336 468 C 364.800781 468 388 444.800781 388 416 L 388 236 C 388 229.199219 382.800781 224 376 224 C 369.199219 224 364 229.199219 364 236 L 364 416 C 364 431.601562 351.601562 444 336 444 L 96 444 C 80.398438 444 68 431.601562 68 416 L 68 176 C 68 160.398438 80.398438 148 96 148 L 276 148 C 282.800781 148 288 142.800781 288 136 C 288 129.199219 282.800781 124 276 124 Z M 96 124 "/>
</g>
</svg>
